<?xml version="1.0" encoding="UTF-8"?> <svg xmlns="http://www.w3.org/2000/svg" xmlns:xlink="http://www.w3.org/1999/xlink" width="161px" height="51px" viewBox="0 0 161 51"><!-- Generator: Sketch 60.1 (88133) - https://sketch.com --><title>Group 7</title><desc>Created with Sketch.</desc><g id="Finals" stroke="none" stroke-width="1" fill="none" fill-rule="evenodd"><g id="Group-7" transform="translate(0.000000, -0.000164)" fill-rule="nonzero"><path d="M148.178964,0 L12.828274,0 C12.3349037,0 11.8474533,0 11.355388,0.00271574117 C10.9434837,0.00526573289 10.5348622,0.0126734588 10.1190023,0.0189081885 C9.21556239,0.0289829554 8.31424706,0.104302642 7.42288893,0.244212706 C6.53278279,0.387168592 5.67055989,0.656681185 4.86538206,1.04363511 C4.061189,1.43386252 3.32637481,1.94092304 2.68759679,2.54642172 C2.04546529,3.15021768 1.51019911,3.84812413 1.10238061,4.61330476 C0.693436542,5.3769624 0.409873408,6.19529194 0.261484922,7.04002987 C0.111685667,7.88370088 0.0310773257,8.73710105 0.0203833114,9.59257157 C0.00789769226,9.9834853 0.00657916783,10.3756995 0,10.7666643 L0,40.23725 C0.00657916783,40.6331362 0.00789769226,41.0166549 0.0203833114,41.4126687 C0.0310806051,42.2680968 0.111688948,43.1214543 0.261484922,43.9650829 C0.409463663,44.8103146 0.693043563,45.6291139 1.10238061,46.3930575 C1.51001394,47.1557637 2.04535539,47.8508446 2.68759679,48.4512833 C3.32395277,49.0594742 4.05924193,49.5668797 4.86538206,49.9541209 C5.67055377,50.3421105 6.53268372,50.6132273 7.42288893,50.7583883 C8.31439859,50.8971776 9.21562122,50.9725279 10.1190023,50.9838076 C10.5348622,50.9924775 10.9434837,50.99745 11.355388,50.99745 C11.8474398,51 12.3349306,51 12.828274,51 L148.178964,51 C148.662513,51 149.153865,51 149.637414,50.99745 C150.047367,50.99745 150.467815,50.9924775 150.877769,50.9838076 C151.779442,50.9731278 152.678968,50.8977727 153.568635,50.7583883 C154.461712,50.6122054 155.326933,50.3411604 156.13599,49.9541209 C156.941403,49.5666555 157.676014,49.0592639 158.311825,48.4512833 C158.952409,47.8484931 159.488894,47.1539205 159.901588,46.3930575 C160.307854,45.6285582 160.588734,44.8098243 160.734546,43.9650829 C160.884582,43.1213386 160.96805,42.2681708 160.984258,41.4126687 C160.989506,41.0166549 160.989506,40.6331362 160.989506,40.23725 C161,39.774044 161,39.313388 161,38.8426595 L161,12.158692 C161,11.6917758 161,11.2285953 160.989506,10.7666643 C160.989506,10.3756995 160.989506,9.9834853 160.984258,9.59252057 C160.968054,8.73697597 160.884585,7.88376561 160.734546,7.03997887 C160.588328,6.19572965 160.307464,5.37746495 159.901588,4.61325376 C159.071085,3.07953074 157.754147,1.83109218 156.13599,1.04352036 C155.32693,0.657512023 154.461617,0.388071011 153.568635,0.244097957 C152.679122,0.103571462 151.779502,0.0282255585 150.877769,0.0187296891 C150.467815,0.0125077093 150.047367,0.00503623363 149.637414,0.00254999171 C149.153865,0 148.662513,0 148.178964,0 L148.178964,0 Z" id="Path" fill="#A6A6A6"></path><path d="M11.2097964,49.997438 C10.7989677,49.997438 10.3980632,49.9924422 9.99045719,49.9837316 C9.14606831,49.9732797 8.30365298,49.9034463 7.4701201,49.7748039 C6.69289274,49.6476388 5.93996835,49.4110885 5.23618189,49.0729557 C4.53884876,48.7376245 3.9028249,48.2979287 3.35247552,47.7707126 C2.79415996,47.2497069 2.32933675,46.6454291 1.976426,45.9818258 C1.61962648,45.3139095 1.37269998,44.5979839 1.24424808,43.8589878 C1.10553119,43.0649281 1.0304796,42.2620085 1.01974049,41.4571526 C1.01119167,41.1869941 1,40.2874909 1,40.2874909 L1,10.6961639 C1,10.6961639 1.0119198,9.81048233 1.01980791,9.55027711 C1.03009053,8.74669613 1.10470569,7.94502253 1.24300756,7.15219518 C1.37169656,6.41117468 1.61881422,5.69318453 1.97580574,5.02308036 C2.32741946,4.35993539 2.78966206,3.75520638 3.34461439,3.23233609 C3.89894296,2.70449779 4.53700134,2.26253795 5.23552117,1.92257372 C5.93769014,1.5855272 6.68919159,1.35064558 7.46484788,1.22579813 C8.30111822,1.0958635 9.14645809,1.02561456 9.99377424,1.01564075 L11.2104571,1 L149.782949,1 L151.014168,1.01626843 C151.853777,1.02574665 152.691437,1.09536888 153.520023,1.22454277 C154.303532,1.35095625 155.062865,1.58747676 155.773055,1.92632699 C157.172443,2.61145342 158.311098,3.69538807 159.029426,5.02620595 C159.380719,5.69168411 159.624025,6.40381761 159.751086,7.13843747 C159.891035,7.93776999 159.96936,8.74574345 159.985437,9.55591342 C159.989348,9.9186866 159.989348,10.3083603 159.989348,10.6961639 C160,11.1765309 160,11.6337507 160,12.0947237 L160,38.9039057 C160,39.3692853 160,39.8233922 159.989348,40.2812141 C159.989348,40.6977884 159.989348,41.0793919 159.984089,41.47214 C159.96836,42.2678529 159.891341,43.0614046 159.753648,43.8464342 C159.627829,44.5907612 159.382247,45.312275 159.025516,45.9856687 C158.67011,46.6420693 158.207956,47.2411127 157.656087,47.760721 C157.105242,48.2907703 156.468096,48.7330386 155.769144,49.0705218 C155.060922,49.4112541 154.302706,49.6486791 153.520023,49.7748039 C152.686553,49.9041328 151.844057,49.9739707 150.999605,49.9837316 C150.604661,49.9924422 150.191108,49.997438 149.789556,49.997438 L148.327897,50 L11.2097964,49.997438 Z" id="Path" fill="#000000"></path><g id="_Group_" transform="translate(14.362500, 8.100164)" fill="#FFFFFF"><g id="_Group_2"><g id="_Group_3"><path d="M22.1965955,17.23041 C22.228989,14.7161295 23.547117,12.3936992 25.6891711,11.0767863 C24.331707,9.13808604 22.1395539,7.95297569 19.7740117,7.87896379 C17.2852685,7.61773498 14.8725405,9.36818739 13.6043224,9.36818739 C12.3115614,9.36818739 10.3589405,7.90489993 8.25629009,7.94816142 C5.48975046,8.03754243 2.97310874,9.57234999 1.62713093,11.9910427 C-1.2391832,16.9536195 0.898829266,24.2469365 3.64451811,28.2583091 C5.01824436,30.2225642 6.62373597,32.4166876 8.72448931,32.3388792 C10.7802027,32.253616 11.5479718,31.0280222 14.0293935,31.0280222 C16.487784,31.0280222 17.2081122,32.3388792 19.3514897,32.2894079 C21.557366,32.2536012 22.9471726,30.3164234 24.2727021,28.3335683 C25.2597222,26.9339648 26.0192325,25.3870981 26.5230996,23.7502668 C23.9031885,22.642173 22.1996534,20.0750183 22.1965955,17.23041 L22.1965955,17.23041 Z" id="_Path_"></path><path d="M18.1481417,5.2408136 C19.3508771,3.79697367 19.9434191,1.94116206 19.799933,0.0674871141 C17.9624209,0.260482369 16.2650744,1.13869373 15.0460903,2.52713737 C13.8423995,3.89702363 13.2326125,5.68920158 13.3510375,7.50893657 C15.2131884,7.5281097 16.9812615,6.69214556 18.1481417,5.2408136 L18.1481417,5.2408136 Z" id="_Path_2"></path></g></g><g id="Group" transform="translate(37.000000, 14.500000)"><path d="M10.3724324,11.6783778 L4.45876402,11.6783778 L3.03860407,15.8717551 L0.533809329,15.8717551 L6.13514045,0.357339779 L8.73753433,0.357339779 L14.3388654,15.8717551 L11.7913555,15.8717551 L10.3724324,11.6783778 Z M5.07123236,9.74334868 L9.75878965,9.74334868 L7.44798132,2.93780758 L7.38331502,2.93780758 L5.07123236,9.74334868 Z" id="Shape"></path><path d="M26.4358367,10.2167395 C26.4358367,13.7317578 24.554492,15.9900935 21.7153965,15.9900935 C20.2478928,16.0668593 18.8655846,15.2982174 18.1564636,14.0111247 L18.1027416,14.0111247 L18.1027416,19.6136802 L15.7809515,19.6136802 L15.7809515,4.56049949 L18.0283553,4.56049949 L18.0283553,6.44184411 L18.0710581,6.44184411 C18.8116825,5.16282052 20.1954814,4.39450954 21.6726938,4.44214867 C24.5434603,4.44216116 26.4358367,6.71147861 26.4358367,10.2167395 Z M24.0493803,10.2167395 C24.0493803,7.92668286 22.8659095,6.42110492 21.0602129,6.42110492 C19.2862374,6.42110492 18.0930091,7.95839133 18.0930091,10.2167395 C18.0930091,12.4958269 19.2862374,14.0221315 21.0602129,14.0221315 C22.865922,14.0221315 24.0493803,12.5275478 24.0493803,10.2167395 Z" id="Shape"></path><path d="M38.8853991,10.2167395 C38.8853991,13.7317578 37.0040545,15.9900935 34.164959,15.9900935 C32.6974553,16.0668593 31.315147,15.2982174 30.6060261,14.0111247 L30.552304,14.0111247 L30.552304,19.6136802 L28.2305139,19.6136802 L28.2305139,4.56049949 L30.4778678,4.56049949 L30.4778678,6.44184411 L30.5205706,6.44184411 C31.2612004,5.16282129 32.6450046,4.39451483 34.1222188,4.44216116 C36.9930727,4.44216116 38.8853991,6.71147861 38.8853991,10.2167395 Z M36.4989552,10.2167395 C36.4989552,7.92668286 35.3154719,6.42110492 33.5097754,6.42110492 C31.7357998,6.42110492 30.5425716,7.95839133 30.5425716,10.2167395 C30.5425716,12.4958269 31.7357998,14.0221315 33.5097754,14.0221315 C35.3154844,14.0221315 36.4989552,12.5275478 36.4989552,10.2167395 L36.4989552,10.2167395 Z" id="Shape"></path><path d="M47.1135364,11.5490452 C47.2855718,13.087556 48.7801679,14.0977171 50.8225411,14.0977171 C52.7795338,14.0977171 54.1874876,13.087506 54.1874876,11.7002789 C54.1874876,10.4960689 53.3383176,9.77503217 51.3276529,9.28088967 L49.3169882,8.79651708 C46.4681352,8.10840066 45.1455744,6.77608244 45.1455744,4.61412155 C45.1455744,1.93729146 47.4783463,0.0986495833 50.7908202,0.0986495833 C54.0691118,0.0986495833 56.3165032,1.93729146 56.3921513,4.61412155 L54.0483726,4.61412155 C53.9080707,3.06585336 52.6282127,2.13129036 50.7578498,2.13129036 C48.887487,2.13129036 47.6076414,3.07684763 47.6076414,4.45308047 C47.6076414,5.5499214 48.4250905,6.19533507 50.4247734,6.6894151 L52.1340827,7.10912139 C55.3172364,7.86190411 56.6397972,9.1405628 56.6397972,11.4098553 C56.6397972,14.3123927 54.3277645,16.1302954 50.6504808,16.1302954 C47.2098862,16.1302954 44.8868842,14.3550955 44.7368124,11.5489328 L47.1135364,11.5490452 Z" id="Path"></path><path d="M61.6506361,1.8836694 L61.6506361,4.56049949 L63.8016152,4.56049949 L63.8016152,6.39914137 L61.6506361,6.39914137 L61.6506361,12.6349044 C61.6506361,13.6036371 62.0813241,14.0550643 63.0268689,14.0550643 C63.2822251,14.0506116 63.5371682,14.0326793 63.7906334,14.0013423 L63.7906334,15.8290024 C63.3655153,15.9084355 62.9334186,15.9444104 62.5010179,15.9363715 C60.2109613,15.9363715 59.3178642,15.0762197 59.3178642,12.8825378 L59.3178642,6.39914137 L57.6732212,6.39914137 L57.6732212,4.56049949 L59.3178392,4.56049949 L59.3178392,1.8836694 L61.6506361,1.8836694 Z" id="Path"></path><path d="M65.0473535,10.2167395 C65.0473535,6.65780658 67.1434237,4.42142197 70.4119955,4.42142197 C73.6915365,4.42142197 75.7778493,6.6577566 75.7778493,10.2167395 C75.7778493,13.7854423 73.7025183,16.012057 70.4119955,16.012057 C67.1226346,16.012057 65.0473535,13.7854298 65.0473535,10.2167395 Z M73.4121321,10.2167395 C73.4121321,7.7753867 72.2933276,6.33448756 70.411983,6.33448756 C68.5306384,6.33448756 67.4130582,7.78636848 67.4130582,10.2167395 C67.4130582,12.6678497 68.5306384,14.0977796 70.411983,14.0977796 C72.2933276,14.0977796 73.4121321,12.6678497 73.4121321,10.2167395 L73.4121321,10.2167395 Z" id="Shape"></path><path d="M77.6920768,4.56049949 L79.9065103,4.56049949 L79.9065103,6.48574624 L79.9602323,6.48574624 C80.2690415,5.24637758 81.4046453,4.39340101 82.6809771,4.44213617 C82.9485427,4.44120195 83.2153701,4.47025995 83.4764625,4.52876603 L83.4764625,6.70048434 C83.1386772,6.59726727 82.7863092,6.54987693 82.4332561,6.56018245 C81.7506721,6.53249118 81.0900822,6.80452353 80.6249378,7.30485186 C80.1597934,7.8051802 79.9365654,8.48381846 80.0138669,9.16257633 L80.0138669,15.8717302 L77.6920768,15.8717302 L77.6920768,4.56049949 Z" id="Path"></path><path d="M94.1812967,12.5494989 C93.8689594,14.6028664 91.869264,16.0120445 89.3107847,16.0120445 C86.0202619,16.0120445 83.9778762,13.8073809 83.9778762,10.2704115 C83.9778762,6.72246038 86.0312437,4.42140947 89.2131856,4.42140947 C92.3426548,4.42140947 94.3106293,6.57116423 94.3106293,10.000777 L94.3106293,10.7962625 L86.3216299,10.7962625 L86.3216299,10.9365644 C86.2470405,11.7786651 86.5378192,12.612228 87.1200013,13.2252217 C87.7021833,13.8382153 88.5196564,14.1715577 89.3644817,14.1404573 C90.4911974,14.2460268 91.5534699,13.5990366 91.9766455,12.5494864 L94.1812967,12.5494989 Z M86.3325897,9.17358309 L91.9876148,9.17358309 C92.0297497,8.41688678 91.754307,7.67692936 91.2276484,7.13197392 C90.7009898,6.58701848 89.9708668,6.28647559 89.2131856,6.3027541 C88.4495108,6.29819676 87.7156544,6.59888057 87.1747297,7.13797291 C86.6338051,7.67706526 86.330633,8.4098972 86.3325897,9.17358309 L86.3325897,9.17358309 Z" id="Shape"></path></g></g><g id="_Group_4" transform="translate(51.000000, 8.500000)" fill="#FFFFFF"><g id="Group"><path d="M3.80860857,0.985104635 C4.87180271,0.908808458 5.91317785,1.31331216 6.64610247,2.0872788 C7.37902709,2.86124545 7.72624691,3.9230947 7.59219199,4.98055966 C7.59219199,7.54944572 6.2037874,9.02609197 3.80860857,9.02609197 L0.904140084,9.02609197 L0.904140084,0.985104635 L3.80860857,0.985104635 Z M2.15303984,7.88892275 L3.66910374,7.88892275 C4.42891716,7.93433999 5.16874904,7.63497734 5.68317579,7.07395659 C6.19760254,6.51293584 6.43185679,5.74998489 6.32089492,4.99694663 C6.42378379,4.24703341 6.18615603,3.49037829 5.67300477,2.93393266 C5.15985352,2.37748703 4.42487935,2.07948217 3.66910374,2.12142485 L2.15303984,2.12142485 L2.15303984,7.88892275 Z" id="Shape"></path><path d="M9.00296694,5.98924751 C8.89891392,4.90156943 9.42046218,3.84893174 10.3488758,3.27280783 C11.2772895,2.69668391 12.4520484,2.69668391 13.3804621,3.27280783 C14.3088757,3.84893174 14.830424,4.90156943 14.726371,5.98924751 C14.8324037,7.0780944 14.3113315,8.13277372 13.3820947,8.71013792 C12.4528579,9.28750211 11.27648,9.28750211 10.3472432,8.71013792 C9.4180064,8.13277372 8.89693418,7.0780944 9.00296694,5.98924751 Z M13.4945724,5.98924751 C13.4945724,4.67388352 12.9036579,3.90466638 11.8666432,3.90466638 C10.8256666,3.90466638 10.2400751,4.67388352 10.2400751,5.98926099 C10.2400751,7.31516331 10.825707,8.07845096 11.8666432,8.07845096 C12.9036848,8.07845096 13.4945724,7.30988067 13.4945724,5.98924751 L13.4945724,5.98924751 Z" id="Shape"></path><polygon id="Path" points="22.33433 9.02597068 21.0920066 9.02597068 19.8378377 4.55673558 19.7430871 4.55673558 18.4941738 9.02597068 17.2636825 9.02597068 15.5910125 2.95776656 16.8057099 2.95776656 17.8927479 7.58816263 17.9822429 7.58816263 19.2298354 2.95776656 20.3787289 2.95776656 21.6263214 7.58816263 21.7210721 7.58816263 22.8028409 2.95776656 24.0004236 2.95776656"></polygon><path d="M25.40725,2.95776656 L26.560092,2.95776656 L26.560092,3.92175411 L26.6495869,3.92175411 C26.9607976,3.21200433 27.688007,2.77784343 28.460441,2.84063209 C29.058534,2.79566465 29.6446229,3.02510662 30.0532256,3.46417512 C30.4618282,3.90324362 30.6486038,4.50429157 30.5608162,5.09761327 L30.5608162,9.0259033 L29.3632335,9.0259033 L29.3632335,5.39834645 C29.3632335,4.42317371 28.9394768,3.93820846 28.0537855,3.93820846 C27.6481082,3.91931374 27.2544091,4.07852532 26.975904,4.37410281 C26.6973989,4.66968031 26.5618642,5.07214476 26.6048327,5.47598239 L26.6048327,9.02597068 L25.40725,9.02597068 L25.40725,2.95776656 Z" id="Path"></path><polygon id="Path" points="32.4690622 0.588906601 33.6666449 0.588906601 33.6666449 9.02595721 32.4690622 9.02595721"></polygon><path d="M35.3314178,5.98924751 C35.2274447,4.90149828 35.7490753,3.84883395 36.6775578,3.27270115 C37.6060403,2.69656834 38.7808597,2.69656834 39.7093422,3.27270115 C40.6378248,3.84883395 41.1594553,4.90149828 41.0554822,5.98924751 C41.1613803,7.07813338 40.6402126,8.1327829 39.7109296,8.71012166 C38.7816467,9.28746043 37.6052533,9.28746043 36.6759704,8.71012166 C35.7466875,8.1327829 35.2255198,7.07813338 35.3314178,5.98924751 L35.3314178,5.98924751 Z M39.8230233,5.98924751 C39.8230233,4.67388352 39.2321088,3.90466638 38.1950941,3.90466638 C37.1541175,3.90466638 36.568526,4.67388352 36.568526,5.98926099 C36.568526,7.31516331 37.1541579,8.07845096 38.1950941,8.07845096 C39.2321222,8.07845096 39.8230233,7.30988067 39.8230233,5.98924751 L39.8230233,5.98924751 Z" id="Shape"></path><path d="M42.3162409,7.30988067 C42.3162409,6.21757348 43.129552,5.58786117 44.5732221,5.49836624 L46.2169453,5.40361561 L46.2169453,4.87983912 C46.2169453,4.23892815 45.7931886,3.87702685 44.9746219,3.87702685 C44.3060849,3.87702685 43.8428432,4.12246749 43.7099147,4.55149336 L42.5504964,4.55149336 C42.6728866,3.50919606 43.6533284,2.84065904 45.0298875,2.84065904 C46.5512206,2.84065904 47.4092723,3.59801719 47.4092723,4.87983912 L47.4092723,9.02598416 L46.2564304,9.02598416 L46.2564304,8.17320158 L46.1616798,8.17320158 C45.7701291,8.79596874 45.0738246,9.15994118 44.3389801,9.12596352 C43.8238366,9.17954703 43.3100662,9.01271107 42.9246823,8.66670052 C42.5392984,8.32068998 42.3182706,7.82779952 42.3162409,7.30988067 L42.3162409,7.30988067 Z M46.2169453,6.79135987 L46.2169453,6.28403772 L44.7350973,6.37878834 C43.8994159,6.43471426 43.5204,6.71897961 43.5204,7.25394129 C43.5204,7.80008815 43.9941666,8.11790904 44.6456563,8.11790904 C45.0313242,8.15694919 45.416324,8.0378003 45.7125211,7.78773807 C46.0087182,7.53767585 46.1907499,7.17811256 46.2169453,6.79135987 Z" id="Shape"></path><path d="M48.9832297,5.98924751 C48.9832297,4.07179727 49.9689407,2.85709992 51.5021058,2.85709992 C52.2762778,2.8214288 53.0013617,3.23625452 53.3629698,3.92171368 L53.4524648,3.92171368 L53.4524648,0.588906601 L54.6500474,0.588906601 L54.6500474,9.02595721 L53.5024747,9.02595721 L53.5024747,8.06722534 L53.407724,8.06722534 C53.0187818,8.74699738 52.2847648,9.15481115 51.5021193,9.12596352 C49.9584159,9.1260309 48.9832297,7.91130659 48.9832297,5.98924751 Z M50.2203378,5.98924751 C50.2203378,7.27632513 50.8270329,8.05081143 51.8416907,8.05081143 C52.8510523,8.05081143 53.4748756,7.26515342 53.4748756,5.99451668 C53.4748756,4.72980943 52.8445029,3.93295277 51.8416907,3.93295277 C50.8335688,3.93295277 50.2202974,4.71269475 50.2202974,5.98924751 L50.2203378,5.98924751 Z" id="Shape"></path><path d="M59.6048947,5.98924751 C59.5008416,4.90156943 60.0223899,3.84893174 60.9508035,3.27280783 C61.8792172,2.69668391 63.0539762,2.69668391 63.9823898,3.27280783 C64.9108034,3.84893174 65.4323517,4.90156943 65.3282987,5.98924751 C65.4343314,7.0780944 64.9132592,8.13277372 63.9840224,8.71013792 C63.0547856,9.28750211 61.8784078,9.28750211 60.949171,8.71013792 C60.0199341,8.13277372 59.4988619,7.0780944 59.6048947,5.98924751 L59.6048947,5.98924751 Z M64.0964867,5.98924751 C64.0964867,4.67388352 63.5055856,3.90466638 62.4685709,3.90466638 C61.4275943,3.90466638 60.8420028,4.67388352 60.8420028,5.98926099 C60.8420028,7.31516331 61.4276347,8.07845096 62.4685709,8.07845096 C63.5055991,8.07845096 64.0964867,7.30988067 64.0964867,5.98924751 Z" id="Shape"></path><path d="M66.9351647,2.95776656 L68.0880067,2.95776656 L68.0880067,3.92175411 L68.1775016,3.92175411 C68.4887123,3.21200433 69.2159216,2.77784343 69.9883557,2.84063209 C70.5864487,2.79566465 71.1725375,3.02510662 71.5811402,3.46417512 C71.9897429,3.90324362 72.1765185,4.50429157 72.0887308,5.09761327 L72.0887308,9.0259033 L70.8911482,9.0259033 L70.8911482,5.39834645 C70.8911482,4.42317371 70.4673915,3.93820846 69.5817002,3.93820846 C69.1760228,3.91931374 68.7823237,4.07852532 68.5038187,4.37410281 C68.2253136,4.66968031 68.0897788,5.07214476 68.1327474,5.47598239 L68.1327474,9.02597068 L66.9351647,9.02597068 L66.9351647,2.95776656 Z" id="Path"></path><path d="M78.8557528,1.44697182 L78.8557528,2.98540609 L80.17047,2.98540609 L80.17047,3.99414784 L78.8557528,3.99414784 L78.8557528,7.11444993 C78.8557528,7.75009173 79.1176478,8.02842758 79.7138046,8.02842758 C79.8664292,8.02793913 80.0189006,8.01871084 80.17047,8.00078805 L80.17047,8.99833115 C79.9554039,9.03680645 79.7375032,9.05727577 79.5190342,9.05952623 C78.1872158,9.05952623 77.6568495,8.59101532 77.6568495,7.42107217 L77.6568495,3.99409394 L76.6935223,3.99409394 L76.6935223,2.98535218 L77.6568495,2.98535218 L77.6568495,1.44697182 L78.8557528,1.44697182 Z" id="Path"></path><path d="M81.8062827,0.588906601 L82.9933405,0.588906601 L82.9933405,3.93293929 L83.0880912,3.93293929 C83.4142508,3.21697786 84.1541875,2.78226369 84.9383629,2.84590126 C85.5330597,2.81354142 86.1112147,3.04803464 86.5153514,3.48551023 C86.9194882,3.92298582 87.1075134,4.51787803 87.0282132,5.1081516 L87.0282132,9.02597068 L85.8294312,9.02597068 L85.8294312,5.40358866 C85.8294312,4.43433195 85.377981,3.94345067 84.5318287,3.94345067 C84.115186,3.90928016 83.7047035,4.06074814 83.4101198,4.35736105 C83.1155361,4.65397396 82.9668895,5.06548661 83.0039193,5.48188494 L83.0039193,9.02597068 L81.8063366,9.02597068 L81.8062827,0.588906601 Z" id="Path"></path><path d="M94.0111227,7.38751662 C93.6753072,8.53215091 92.5676263,9.27171189 91.3817019,9.14309167 C90.5725468,9.16445159 89.7949037,8.8290585 89.2550999,8.22590018 C88.715296,7.62274186 88.4679031,6.81279491 88.5785604,6.01095755 C88.4708422,5.2068918 88.7173082,4.39564703 89.2541061,3.78739305 C89.7909041,3.17913908 90.5652132,2.83372794 91.3764327,2.84064557 C93.0648967,2.84064557 94.083503,3.99420175 94.083503,5.89972562 L94.083503,6.31760674 L89.7985134,6.31760674 L89.7985134,6.38471784 C89.7605943,6.83500922 89.9143821,7.28040536 90.2220556,7.61136945 C90.529729,7.94233355 90.9627398,8.12815618 91.4145971,8.12313778 C92.0005011,8.19347598 92.5708384,7.90284769 92.8582808,7.38747619 L94.0111227,7.38751662 Z M89.7984865,5.43190199 L92.8635095,5.43190199 C92.8940368,5.02007225 92.7492299,4.61450108 92.4647738,4.31513441 C92.1803177,4.01576774 91.7826671,3.85044685 91.369816,3.85991218 C90.9513715,3.85465502 90.5485378,4.01860867 90.2526943,4.3145816 C89.9568508,4.61055454 89.7930733,5.01345991 89.7985134,5.43190199 L89.7984865,5.43190199 Z" id="Shape"></path></g></g></g></g></svg> 