<?xml version="1.0" encoding="UTF-8"?> <svg xmlns="http://www.w3.org/2000/svg" width="63" height="60" viewBox="0 0 63 60" fill="none"><path d="M59.6667 35.7143C57.5238 35.7143 55.4286 34.8571 53.9048 33.3333C52.381 34.8571 50.3333 35.7143 48.1429 35.7143H27.7143C25.0952 35.7143 22.9524 33.5714 22.9524 30.9524V4.76191C22.9524 2.14286 25.0952 0 27.7143 0H53.9048C56.5238 0 58.6667 2.14286 58.6667 4.76191V25.8095C58.6667 28.6667 59.8572 31.3333 61.8095 33.2857C62.7143 34.1905 62.0952 35.7619 60.8095 35.7619H59.6667V35.7143Z" fill="#1740AA"></path><path d="M49.5238 24.238L42.381 5.19041C42.1905 4.6666 41.6667 4.28564 41.0476 4.28564C40.4286 4.28564 39.9048 4.6666 39.7143 5.19041L33.4286 21.4285H45.4286L46.8572 25.2856C47.0953 25.8571 47.6191 26.1904 48.1905 26.1904C48.381 26.1904 48.5238 26.1428 48.7143 26.0952C49.4286 25.8095 49.8095 24.9999 49.5238 24.238ZM37.7619 18.5714L41.0476 9.76184L44.3334 18.5714H37.7619Z" fill="#FBFBFB"></path><path d="M42.8571 53.7143H36.7143C34.5714 53.7143 32.4762 52.8571 30.9524 51.3333C29.4286 52.8571 27.381 53.7143 25.1905 53.7143H4.7619C2.14286 53.7143 0 51.5714 0 48.9524V22.7619C0 20.1429 2.14286 18 4.7619 18H30.9524C33.5714 18 35.7143 20.1429 35.7143 22.7619V43.8095C35.7143 48.2857 38.5714 52.2857 42.8571 53.7143Z" fill="#D3E9FB"></path><path d="M28 39.2381C28 39.1905 28.0476 39.1429 28.0476 39.1429C28.2381 38.381 27.8095 37.6191 27.0476 37.381C26.381 37.1905 25.6667 37.5238 25.381 38.1429C25.2381 38.0952 25.0952 38.0953 24.9524 38.0476C23.4286 37.7619 21.7619 37.8095 20.0952 38.1429C20.0952 37.0476 20.1429 36.0476 20.1905 35.1429H30.0476C30.8572 35.1429 31.4762 34.5238 31.4762 33.7143C31.4762 32.9048 30.8572 32.2857 30.0476 32.2857H20.4286C20.6191 30.9048 20.7619 30.0952 20.7619 30.0952C20.9048 29.3333 20.4286 28.5714 19.6667 28.4286C18.9048 28.2857 18.1429 28.7619 18 29.5238C17.9524 29.6667 17.7619 30.6667 17.5714 32.3333H13.2381C12.4286 32.3333 11.8095 32.9524 11.8095 33.7619C11.8095 34.5714 12.4286 35.1905 13.2381 35.1905H17.3333C17.2381 36.3333 17.2381 37.6667 17.2381 39.0476C16.1905 39.4762 15.2381 40 14.3333 40.6667C12.2857 42.1905 10.9524 44.2381 10.7143 46.3333C10.5238 48 11 49.6191 12.0952 50.9524C13.381 52.5238 15.1429 53.1905 16.9048 53.1905C18.381 53.1905 19.8572 52.7143 21 51.8572C23.9048 49.7143 25.9524 45.1905 27.0476 42.1905C27.2857 42.4286 27.4762 42.6667 27.6667 42.9524C29.5238 45.9524 28.0952 47.7143 25.5238 50.2857C25.381 50.4286 25.1905 50.5714 25.0476 50.7619C24.4762 51.3333 24.4762 52.2381 25.0476 52.7619C25.6191 53.3333 26.5238 53.3333 27.0476 52.7619C27.1905 52.6191 27.3333 52.4762 27.4762 52.3333C29.6191 50.1905 33.2857 46.6191 30.0476 41.4762C29.5714 40.5238 28.8572 39.8095 28 39.2381ZM14.2857 49.0476C13.6667 48.3333 13.4286 47.4762 13.5238 46.5714C13.6667 45.2857 14.6191 43.9048 16 42.8572C16.4286 42.5714 16.8572 42.2857 17.3333 42.0476C17.5238 44.5238 18 47.1429 18.8095 49.7619C17.5714 50.4286 15.5714 50.6191 14.2857 49.0476ZM21.1429 47.5238C20.5714 45.3333 20.2857 43.1429 20.1429 41.0476C21.0476 40.8572 21.9048 40.7143 22.7619 40.7143C23.3333 40.7143 23.8572 40.7619 24.381 40.8572C24.4286 40.8572 24.4286 40.8572 24.4762 40.8572C23.7143 42.9524 22.5714 45.5714 21.1429 47.5238Z" fill="#1740AA"></path><path d="M48.1905 59.5714H42.0952C39.5714 59.5714 37.1905 58.5714 35.381 56.8095C34.9048 56.3333 34.7619 55.619 35.0952 55.0476C35.6191 54.1429 36.7619 54.0476 37.4286 54.7619C38.619 56.0952 40.4286 56.6667 42.1905 56.6667H43.2381C41.0476 54.4762 39.7143 51.4762 39.7143 48.1905V27.1905C39.7143 25.3333 38.2381 23.8571 36.381 23.8571H10.1905C8.33333 23.8571 6.85714 25.3333 6.85714 27.1905V53.381C6.85714 55.2381 8.33333 56.7143 10.1905 56.7143H30.5238C31.2857 56.7143 32 57.2857 32.0476 58.0952C32.0952 58.9048 31.4286 59.5714 30.6191 59.5714H10.1905C6.7619 59.5714 4 56.8095 4 53.381V27.1905C4 23.7619 6.7619 21 10.1905 21H35.4286C35.4286 21 42.5714 24.3333 42.5714 24.0952V48.2381C42.5714 52.1429 45.0476 55.5714 48.7143 56.8095C49.4762 57.0476 49.9048 57.9524 49.5714 58.7619C49.381 59.2381 48.8095 59.5714 48.1905 59.5714Z" fill="#1740AA"></path></svg> 