<?xml version="1.0" encoding="UTF-8"?> <svg xmlns="http://www.w3.org/2000/svg" width="59" height="43" viewBox="0 0 59 43" fill="none"><path d="M45 17.499C50.5 17.499 55 21.999 55 27.499L45 37.499H10C4.5 37.499 0 32.999 0 27.499C0 21.999 4.5 17.499 10 17.499H12.5V14.999C12.5 6.69902 19.2 -0.000976562 27.5 -0.000976562C35.8 -0.000976562 42.5 6.69902 42.5 14.999V17.499H45Z" fill="#D3E9FB"></path><path d="M44.6913 41.5917C52.5259 36.9472 57.358 28.4089 57.358 19.167V14.3818L44.6913 9.69043L32.0247 14.3818V19.167C32.0247 28.4089 36.8568 36.9472 44.6913 41.5917Z" fill="#FBFBFB"></path><path d="M33.9012 42.999H12.7901C6.8321 42.999 2 38.1669 2 32.2089C2 26.2509 6.8321 21.4188 12.7901 21.4188H13.7284V20.4805C13.7284 11.9422 20.6716 4.99902 29.2099 4.99902C30.6642 4.99902 32.1185 5.18668 33.5259 5.6089C34.2765 5.84347 34.6988 6.59409 34.4642 7.3447C34.2296 8.09532 33.479 8.51754 32.7284 8.28297C31.6025 7.95458 30.3827 7.76692 29.163 7.76692C22.1728 7.76692 16.4963 13.4435 16.4963 20.4336V22.7793C16.4963 23.5768 15.8864 24.1867 15.0889 24.1867H12.7432C8.33333 24.1867 4.7679 27.7521 4.7679 32.162C4.7679 36.5719 8.33333 40.1373 12.7432 40.1373H33.8543C34.6519 40.1373 35.2617 40.7472 35.2617 41.5447C35.2617 42.3422 34.6988 42.999 33.9012 42.999Z" fill="#1740AA"></path><path d="M44.6914 42.999C44.4568 42.999 44.1753 42.9521 43.9877 42.8113C35.7309 37.9323 30.6173 28.878 30.6173 19.1669V14.3817C30.6173 13.7718 30.9926 13.2558 31.5556 13.0681L44.2222 8.37677C44.5506 8.28294 44.879 8.28294 45.2074 8.37677L57.8741 13.0681C58.4371 13.2558 58.8124 13.8187 58.8124 14.3817V19.1669C58.8124 28.878 53.6988 37.9323 45.442 42.8113C45.2074 42.9521 44.926 42.999 44.6914 42.999ZM33.4321 15.3669V19.1669C33.4321 27.6113 37.7482 35.4928 44.6914 39.9496C51.6346 35.4928 55.9506 27.6113 55.9506 19.1669V15.3669L44.6914 11.1916L33.4321 15.3669Z" fill="#1740AA"></path><path d="M51.963 19.167V19.3078C51.963 18.6979 51.5877 18.1818 51.0247 17.9942L45.9581 16.1646C45.3482 15.93 44.6914 16.3991 44.6914 17.0559V32.5843C44.6914 33.4288 45.7235 33.851 46.2865 33.2411C49.8519 29.488 51.963 24.4683 51.963 19.167Z" fill="#1740AA"></path></svg> 