<?xml version="1.0" encoding="UTF-8"?> <svg xmlns="http://www.w3.org/2000/svg" width="60" height="60" viewBox="0 0 60 60" fill="none"><rect y="14" width="32" height="35.5" fill="#D3E9FB"></rect><path d="M15.6 2.39771C15.3468 2.39771 15.0935 2.47831 14.8805 2.63911L10.8 5.70005L6.71958 2.63911C6.35598 2.36551 5.86893 2.32501 5.46333 2.52661C5.05653 2.73061 4.80005 3.14525 4.80005 3.60005V54C4.80005 54.6636 5.33645 55.2 6.00005 55.2H34.8891C34.2279 54.4632 33.6399 53.6616 33.1407 52.8H7.20005V6.00005L10.0805 8.16099C10.5065 8.48259 11.0936 8.48259 11.5196 8.16099L15.6 5.10005L19.6805 8.16099C20.1065 8.48259 20.6936 8.48259 21.1196 8.16099L25.2 5.10005L29.2805 8.16099C29.7065 8.48259 30.2936 8.48259 30.7196 8.16099L34.8 5.10005L38.8805 8.16099C39.3065 8.48259 39.8936 8.48259 40.3196 8.16099L43.2 6.00005V22.05C43.9644 21.8148 44.7708 21.6797 45.6 21.6305V3.60005C45.6 3.14525 45.3436 2.73061 44.9368 2.52661C44.53 2.32621 44.0441 2.36671 43.6805 2.63911L39.6 5.70005L35.5196 2.63911C35.0936 2.31751 34.5065 2.31751 34.0805 2.63911L30 5.70005L25.9196 2.63911C25.4936 2.31751 24.9065 2.31751 24.4805 2.63911L20.4 5.70005L16.3196 2.63911C16.1066 2.47831 15.8532 2.39771 15.6 2.39771ZM13.2 16.8V19.2H37.2V16.8H13.2ZM46.2 24C43.3347 24 40.8237 25.558 39.4688 27.8743C38.7404 27.6972 37.9817 27.6 37.2 27.6C31.9123 27.6 27.6 31.9123 27.6 37.2C27.6 41.2273 30.0928 44.6857 33.6258 46.1063C33.8945 52.484 39.1579 57.6 45.6 57.6C52.2132 57.6 57.6 52.2132 57.6 45.6C57.6 41.6737 55.6918 38.1911 52.7649 36C53.5426 34.7856 54 33.3432 54 31.8C54 27.5061 50.494 24 46.2 24ZM46.2 26.4C49.1973 26.4 51.6 28.8028 51.6 31.8C51.6 32.9007 51.2654 33.9078 50.7047 34.7579C49.298 34.0922 47.7456 33.6949 46.1063 33.6258C45.267 31.5379 43.7166 29.814 41.7563 28.7532C42.7273 27.3382 44.3435 26.4 46.2 26.4ZM13.2 27.6V30H27.6165C28.3005 29.0904 29.1103 28.2828 30.0211 27.6H13.2ZM37.2 30C39.9492 30 42.309 31.5417 43.5235 33.7922C38.5735 34.6624 34.6624 38.5735 33.7922 43.5235C31.5424 42.3089 30 39.9488 30 37.2C30 33.2094 33.2094 30 37.2 30ZM13.2 34.8V37.2H25.2C25.2 36.378 25.2843 35.5752 25.4415 34.8H13.2ZM45.6 36C50.9162 36 55.2 40.2839 55.2 45.6C55.2 50.9162 50.9162 55.2 45.6 55.2C40.2839 55.2 36 50.9162 36 45.6C36 40.2839 40.2839 36 45.6 36ZM42.9938 40.2L42.0047 45.7594H43.8422C44.0438 45.481 44.4689 44.9555 45.3797 44.9555C45.7049 44.9555 47.1188 45.0807 47.1188 46.8375C47.1188 47.4615 46.7465 48.7758 45.3797 48.7758C44.1077 48.7758 43.7754 47.7261 43.7274 47.2665H41.686C41.6668 48.4749 42.5371 50.4422 45.4219 50.4422C48.1627 50.4422 49.1579 48.1623 49.1579 46.8375C49.1579 46.1427 48.7919 43.418 46.0547 43.418C44.8979 43.418 44.3632 43.9154 44.086 44.1938L44.0579 44.1657L44.4586 41.8805H48.6118V40.2H42.9938ZM13.2 42V44.4H27.6165C27.0597 43.6596 26.5811 42.8592 26.2055 42H13.2Z" fill="#1740AA"></path></svg> 